<?xml version="1.0" encoding="utf-8" standalone="no"?>
<!DOCTYPE svg PUBLIC "-//W3C//DTD SVG 1.1//EN"
  "http://www.w3.org/Graphics/SVG/1.1/DTD/svg11.dtd">
<svg xmlns:xlink="http://www.w3.org/1999/xlink" width="351.868582pt" height="208.8pt" viewBox="0 0 351.868582 208.8" xmlns="http://www.w3.org/2000/svg" version="1.1">
 <metadata>
  <rdf:RDF xmlns:dc="http://purl.org/dc/elements/1.1/" xmlns:cc="http://creativecommons.org/ns#" xmlns:rdf="http://www.w3.org/1999/02/22-rdf-syntax-ns#">
   <cc:Work>
    <dc:type rdf:resource="http://purl.org/dc/dcmitype/StillImage"/>
    <dc:date>2024-07-11T13:42:56.231823</dc:date>
    <dc:format>image/svg+xml</dc:format>
    <dc:creator>
     <cc:Agent>
      <dc:title>Matplotlib v3.9.0, https://matplotlib.org/</dc:title>
     </cc:Agent>
    </dc:creator>
   </cc:Work>
  </rdf:RDF>
 </metadata>
 <defs>
  <style type="text/css">*{stroke-linejoin: round; stroke-linecap: butt}</style>
 </defs>
 <g id="figure_1">
  <g id="patch_1">
   <path d="M 0 208.8 
L 351.868582 208.8 
L 351.868582 0 
L 0 0 
L 0 208.8 
z
" style="fill: none"/>
  </g>
  <g id="axes_1">
   <g id="patch_2">
    <path d="M 44.80625 184.921875 
L 344.297443 184.921875 
L 344.297443 22.318125 
L 44.80625 22.318125 
L 44.80625 184.921875 
z
" style="fill: none; opacity: 0"/>
   </g>
   <g id="PolyCollection_1">
    <path d="M 58.419486 98.199875 
L 58.419486 98.199875 
L 59.33007 102.36361 
L 59.616843 103.62 
L 59.33007 103.62 
L 58.419486 103.62 
z
" clip-path="url(#p7b9c1166e9)" style="fill: #6ec5bc; fill-opacity: 0.1; stroke: #6ec5bc; stroke-opacity: 0.1"/>
    <path d="M 149.528843 103.62 
L 150.388506 103.130555 
L 151.29909 102.636977 
L 152.209674 102.168427 
L 153.120259 101.725075 
L 154.030843 101.307088 
L 154.941427 100.914638 
L 155.852012 100.547892 
L 156.762596 100.207021 
L 157.67318 99.892193 
L 158.583765 99.603578 
L 159.494349 99.341345 
L 160.404933 99.105663 
L 161.315518 98.896701 
L 162.226102 98.71463 
L 163.136686 98.559617 
L 164.047271 98.431833 
L 164.957855 98.331446 
L 165.86844 98.258626 
L 166.779024 98.213542 
L 167.689608 98.196342 
L 168.600193 98.206358 
L 169.510777 98.241859 
L 170.421361 98.301044 
L 171.331946 98.382113 
L 172.24253 98.483264 
L 173.153114 98.602696 
L 174.063699 98.738608 
L 174.974283 98.889199 
L 175.884867 99.052668 
L 176.795452 99.227214 
L 177.706036 99.411036 
L 178.61662 99.602333 
L 179.527205 99.799303 
L 180.437789 100.000146 
L 181.348373 100.203061 
L 182.258958 100.406247 
L 183.169542 100.607902 
L 184.080127 100.806226 
L 184.990711 100.999417 
L 185.901295 101.185674 
L 186.81188 101.363197 
L 187.722464 101.530184 
L 188.633048 101.684835 
L 189.543633 101.825347 
L 190.454217 101.949921 
L 191.364801 102.056755 
L 192.275386 102.144048 
L 193.18597 102.209999 
L 194.096554 102.252806 
L 195.007139 102.27074 
L 195.917723 102.263679 
L 196.828307 102.233114 
L 197.738892 102.180605 
L 198.649476 102.107712 
L 199.560061 102.015996 
L 200.470645 101.907017 
L 201.381229 101.782334 
L 202.291814 101.643509 
L 203.202398 101.492102 
L 204.112982 101.329673 
L 205.023567 101.157781 
L 205.934151 100.977989 
L 206.844735 100.791854 
L 207.75532 100.600939 
L 208.665904 100.406803 
L 209.576488 100.211007 
L 210.487073 100.01511 
L 211.397657 99.820674 
L 212.308241 99.629257 
L 213.218826 99.442422 
L 214.12941 99.261727 
L 215.039994 99.088733 
L 215.950579 98.925001 
L 216.861163 98.77209 
L 217.771748 98.631561 
L 218.682332 98.504974 
L 219.592916 98.39389 
L 220.503501 98.299869 
L 221.414085 98.22447 
L 222.324669 98.169149 
L 223.235254 98.133764 
L 224.145838 98.116948 
L 225.056422 98.117304 
L 225.967007 98.133433 
L 226.877591 98.163936 
L 227.788175 98.207414 
L 228.69876 98.26247 
L 229.609344 98.327704 
L 230.519928 98.401718 
L 231.430513 98.483113 
L 232.341097 98.570492 
L 233.251682 98.662455 
L 234.162266 98.757604 
L 235.07285 98.85454 
L 235.983435 98.951866 
L 236.894019 99.048181 
L 237.804603 99.142089 
L 238.715188 99.23219 
L 239.625772 99.317086 
L 240.536356 99.395377 
L 241.446941 99.465667 
L 242.357525 99.526556 
L 243.268109 99.576646 
L 244.178694 99.614537 
L 245.089278 99.638833 
L 245.999862 99.648133 
L 246.910447 99.64104 
L 247.821031 99.616155 
L 248.731616 99.57208 
L 249.6422 99.507552 
L 250.552784 99.422722 
L 251.463369 99.318569 
L 252.373953 99.196088 
L 253.284537 99.056269 
L 254.195122 98.900106 
L 255.105706 98.728591 
L 256.01629 98.542716 
L 256.926875 98.343473 
L 257.837459 98.131855 
L 258.748043 97.908855 
L 259.658628 97.675464 
L 260.569212 97.432674 
L 261.479796 97.181479 
L 262.390381 96.92287 
L 263.300965 96.657841 
L 264.211549 96.387382 
L 265.122134 96.112487 
L 266.032718 95.834147 
L 266.943303 95.553356 
L 267.853887 95.271106 
L 268.764471 94.988388 
L 269.675056 94.706196 
L 270.58564 94.425521 
L 271.496224 94.147356 
L 272.406809 93.872694 
L 273.317393 93.602525 
L 274.227977 93.337844 
L 275.138562 93.079642 
L 276.049146 92.828912 
L 276.95973 92.586575 
L 277.870315 92.353033 
L 278.780899 92.128453 
L 279.691483 91.913001 
L 280.602068 91.706845 
L 281.512652 91.51015 
L 282.423237 91.323084 
L 283.333821 91.145812 
L 284.244405 90.978501 
L 285.15499 90.821318 
L 286.065574 90.67443 
L 286.976158 90.538002 
L 287.886743 90.412201 
L 288.797327 90.297194 
L 289.707911 90.193147 
L 290.618496 90.100227 
L 291.52908 90.018601 
L 292.439664 89.948434 
L 293.350249 89.889894 
L 294.260833 89.843146 
L 295.171417 89.808358 
L 296.082002 89.785695 
L 296.992586 89.775325 
L 297.90317 89.777414 
L 298.813755 89.792128 
L 299.724339 89.819634 
L 300.634924 89.860098 
L 301.545508 89.913688 
L 302.456092 89.980568 
L 303.366677 90.060907 
L 304.277261 90.15487 
L 305.187845 90.262624 
L 306.09843 90.384336 
L 307.009014 90.520171 
L 307.919598 90.670298 
L 308.830183 90.834881 
L 309.740767 91.014087 
L 310.651351 91.208084 
L 311.561936 91.417037 
L 312.47252 91.641113 
L 313.383104 91.880479 
L 314.293689 92.135301 
L 315.204273 92.405745 
L 316.114858 92.691979 
L 317.025442 92.994168 
L 317.936026 93.312479 
L 318.846611 93.647079 
L 319.757195 93.998134 
L 320.667779 94.365811 
L 321.578364 94.750276 
L 322.488948 95.151695 
L 323.399532 95.570236 
L 324.310117 96.006065 
L 325.220701 96.459347 
L 326.131285 96.930251 
L 327.04187 97.418941 
L 327.952454 97.925586 
L 328.863038 98.45035 
L 329.773623 98.993402 
L 330.684207 99.554906 
L 330.684207 99.554906 
L 330.684207 103.62 
L 329.773623 103.62 
L 328.863038 103.62 
L 327.952454 103.62 
L 327.04187 103.62 
L 326.131285 103.62 
L 325.220701 103.62 
L 324.310117 103.62 
L 323.399532 103.62 
L 322.488948 103.62 
L 321.578364 103.62 
L 320.667779 103.62 
L 319.757195 103.62 
L 318.846611 103.62 
L 317.936026 103.62 
L 317.025442 103.62 
L 316.114858 103.62 
L 315.204273 103.62 
L 314.293689 103.62 
L 313.383104 103.62 
L 312.47252 103.62 
L 311.561936 103.62 
L 310.651351 103.62 
L 309.740767 103.62 
L 308.830183 103.62 
L 307.919598 103.62 
L 307.009014 103.62 
L 306.09843 103.62 
L 305.187845 103.62 
L 304.277261 103.62 
L 303.366677 103.62 
L 302.456092 103.62 
L 301.545508 103.62 
L 300.634924 103.62 
L 299.724339 103.62 
L 298.813755 103.62 
L 297.90317 103.62 
L 296.992586 103.62 
L 296.082002 103.62 
L 295.171417 103.62 
L 294.260833 103.62 
L 293.350249 103.62 
L 292.439664 103.62 
L 291.52908 103.62 
L 290.618496 103.62 
L 289.707911 103.62 
L 288.797327 103.62 
L 287.886743 103.62 
L 286.976158 103.62 
L 286.065574 103.62 
L 285.15499 103.62 
L 284.244405 103.62 
L 283.333821 103.62 
L 282.423237 103.62 
L 281.512652 103.62 
L 280.602068 103.62 
L 279.691483 103.62 
L 278.780899 103.62 
L 277.870315 103.62 
L 276.95973 103.62 
L 276.049146 103.62 
L 275.138562 103.62 
L 274.227977 103.62 
L 273.317393 103.62 
L 272.406809 103.62 
L 271.496224 103.62 
L 270.58564 103.62 
L 269.675056 103.62 
L 268.764471 103.62 
L 267.853887 103.62 
L 266.943303 103.62 
L 266.032718 103.62 
L 265.122134 103.62 
L 264.211549 103.62 
L 263.300965 103.62 
L 262.390381 103.62 
L 261.479796 103.62 
L 260.569212 103.62 
L 259.658628 103.62 
L 258.748043 103.62 
L 257.837459 103.62 
L 256.926875 103.62 
L 256.01629 103.62 
L 255.105706 103.62 
L 254.195122 103.62 
L 253.284537 103.62 
L 252.373953 103.62 
L 251.463369 103.62 
L 250.552784 103.62 
L 249.6422 103.62 
L 248.731616 103.62 
L 247.821031 103.62 
L 246.910447 103.62 
L 245.999862 103.62 
L 245.089278 103.62 
L 244.178694 103.62 
L 243.268109 103.62 
L 242.357525 103.62 
L 241.446941 103.62 
L 240.536356 103.62 
L 239.625772 103.62 
L 238.715188 103.62 
L 237.804603 103.62 
L 236.894019 103.62 
L 235.983435 103.62 
L 235.07285 103.62 
L 234.162266 103.62 
L 233.251682 103.62 
L 232.341097 103.62 
L 231.430513 103.62 
L 230.519928 103.62 
L 229.609344 103.62 
L 228.69876 103.62 
L 227.788175 103.62 
L 226.877591 103.62 
L 225.967007 103.62 
L 225.056422 103.62 
L 224.145838 103.62 
L 223.235254 103.62 
L 222.324669 103.62 
L 221.414085 103.62 
L 220.503501 103.62 
L 219.592916 103.62 
L 218.682332 103.62 
L 217.771748 103.62 
L 216.861163 103.62 
L 215.950579 103.62 
L 215.039994 103.62 
L 214.12941 103.62 
L 213.218826 103.62 
L 212.308241 103.62 
L 211.397657 103.62 
L 210.487073 103.62 
L 209.576488 103.62 
L 208.665904 103.62 
L 207.75532 103.62 
L 206.844735 103.62 
L 205.934151 103.62 
L 205.023567 103.62 
L 204.112982 103.62 
L 203.202398 103.62 
L 202.291814 103.62 
L 201.381229 103.62 
L 200.470645 103.62 
L 199.560061 103.62 
L 198.649476 103.62 
L 197.738892 103.62 
L 196.828307 103.62 
L 195.917723 103.62 
L 195.007139 103.62 
L 194.096554 103.62 
L 193.18597 103.62 
L 192.275386 103.62 
L 191.364801 103.62 
L 190.454217 103.62 
L 189.543633 103.62 
L 188.633048 103.62 
L 187.722464 103.62 
L 186.81188 103.62 
L 185.901295 103.62 
L 184.990711 103.62 
L 184.080127 103.62 
L 183.169542 103.62 
L 182.258958 103.62 
L 181.348373 103.62 
L 180.437789 103.62 
L 179.527205 103.62 
L 178.61662 103.62 
L 177.706036 103.62 
L 176.795452 103.62 
L 175.884867 103.62 
L 174.974283 103.62 
L 174.063699 103.62 
L 173.153114 103.62 
L 172.24253 103.62 
L 171.331946 103.62 
L 170.421361 103.62 
L 169.510777 103.62 
L 168.600193 103.62 
L 167.689608 103.62 
L 166.779024 103.62 
L 165.86844 103.62 
L 164.957855 103.62 
L 164.047271 103.62 
L 163.136686 103.62 
L 162.226102 103.62 
L 161.315518 103.62 
L 160.404933 103.62 
L 159.494349 103.62 
L 158.583765 103.62 
L 157.67318 103.62 
L 156.762596 103.62 
L 155.852012 103.62 
L 154.941427 103.62 
L 154.030843 103.62 
L 153.120259 103.62 
L 152.209674 103.62 
L 151.29909 103.62 
L 150.388506 103.62 
z
" clip-path="url(#p7b9c1166e9)" style="fill: #6ec5bc; fill-opacity: 0.1; stroke: #6ec5bc; stroke-opacity: 0.1"/>
   </g>
   <g id="PolyCollection_2">
    <defs>
     <path id="m7b95c6318f" d="M 59.616843 -105.18 
L 60.240655 -102.446999 
L 61.151239 -98.629012 
L 62.061823 -94.979492 
L 62.972408 -91.495501 
L 63.882992 -88.174099 
L 64.793577 -85.012348 
L 65.704161 -82.007311 
L 66.614745 -79.156048 
L 67.52533 -76.455622 
L 68.435914 -73.903094 
L 69.346498 -71.495526 
L 70.257083 -69.22998 
L 71.167667 -67.103516 
L 72.078251 -65.113197 
L 72.988836 -63.256084 
L 73.89942 -61.52924 
L 74.810004 -59.929725 
L 75.720589 -58.454601 
L 76.631173 -57.100931 
L 77.541757 -55.865775 
L 78.452342 -54.746195 
L 79.362926 -53.739254 
L 80.27351 -52.842012 
L 81.184095 -52.051531 
L 82.094679 -51.364873 
L 83.005264 -50.779099 
L 83.915848 -50.291272 
L 84.826432 -49.898453 
L 85.737017 -49.597703 
L 86.647601 -49.386085 
L 87.558185 -49.260659 
L 88.46877 -49.218487 
L 89.379354 -49.256632 
L 90.289938 -49.372155 
L 91.200523 -49.562117 
L 92.111107 -49.82358 
L 93.021691 -50.153606 
L 93.932276 -50.549256 
L 94.84286 -51.007592 
L 95.753444 -51.525676 
L 96.664029 -52.100569 
L 97.574613 -52.729333 
L 98.485198 -53.40903 
L 99.395782 -54.136721 
L 100.306366 -54.909469 
L 101.216951 -55.724333 
L 102.127535 -56.578377 
L 103.038119 -57.468662 
L 103.948704 -58.39225 
L 104.859288 -59.346202 
L 105.769872 -60.327579 
L 106.680457 -61.333444 
L 107.591041 -62.360859 
L 108.501625 -63.406884 
L 109.41221 -64.468581 
L 110.322794 -65.543013 
L 111.233378 -66.627241 
L 112.143963 -67.718325 
L 113.054547 -68.813332 
L 113.965131 -69.909924 
L 114.875716 -71.007101 
L 115.7863 -72.104042 
L 116.696885 -73.199929 
L 117.607469 -74.29394 
L 118.518053 -75.385256 
L 119.428638 -76.473057 
L 120.339222 -77.556523 
L 121.249806 -78.634835 
L 122.160391 -79.707172 
L 123.070975 -80.772715 
L 123.981559 -81.830644 
L 124.892144 -82.880138 
L 125.802728 -83.920378 
L 126.713312 -84.950545 
L 127.623897 -85.969817 
L 128.534481 -86.977376 
L 129.445065 -87.972401 
L 130.35565 -88.954073 
L 131.266234 -89.921572 
L 132.176819 -90.874077 
L 133.087403 -91.810769 
L 133.997987 -92.730828 
L 134.908572 -93.633434 
L 135.819156 -94.517768 
L 136.72974 -95.383009 
L 137.640325 -96.228337 
L 138.550909 -97.052933 
L 139.461493 -97.855976 
L 140.372078 -98.63665 
L 141.282662 -99.394365 
L 142.193246 -100.128913 
L 143.103831 -100.840126 
L 144.014415 -101.527834 
L 144.924999 -102.191869 
L 145.835584 -102.83206 
L 146.746168 -103.448239 
L 147.656752 -104.040236 
L 148.567337 -104.607882 
L 149.477921 -105.151008 
L 149.528843 -105.18 
L 149.477921 -105.18 
L 148.567337 -105.18 
L 147.656752 -105.18 
L 146.746168 -105.18 
L 145.835584 -105.18 
L 144.924999 -105.18 
L 144.014415 -105.18 
L 143.103831 -105.18 
L 142.193246 -105.18 
L 141.282662 -105.18 
L 140.372078 -105.18 
L 139.461493 -105.18 
L 138.550909 -105.18 
L 137.640325 -105.18 
L 136.72974 -105.18 
L 135.819156 -105.18 
L 134.908572 -105.18 
L 133.997987 -105.18 
L 133.087403 -105.18 
L 132.176819 -105.18 
L 131.266234 -105.18 
L 130.35565 -105.18 
L 129.445065 -105.18 
L 128.534481 -105.18 
L 127.623897 -105.18 
L 126.713312 -105.18 
L 125.802728 -105.18 
L 124.892144 -105.18 
L 123.981559 -105.18 
L 123.070975 -105.18 
L 122.160391 -105.18 
L 121.249806 -105.18 
L 120.339222 -105.18 
L 119.428638 -105.18 
L 118.518053 -105.18 
L 117.607469 -105.18 
L 116.696885 -105.18 
L 115.7863 -105.18 
L 114.875716 -105.18 
L 113.965131 -105.18 
L 113.054547 -105.18 
L 112.143963 -105.18 
L 111.233378 -105.18 
L 110.322794 -105.18 
L 109.41221 -105.18 
L 108.501625 -105.18 
L 107.591041 -105.18 
L 106.680457 -105.18 
L 105.769872 -105.18 
L 104.859288 -105.18 
L 103.948704 -105.18 
L 103.038119 -105.18 
L 102.127535 -105.18 
L 101.216951 -105.18 
L 100.306366 -105.18 
L 99.395782 -105.18 
L 98.485198 -105.18 
L 97.574613 -105.18 
L 96.664029 -105.18 
L 95.753444 -105.18 
L 94.84286 -105.18 
L 93.932276 -105.18 
L 93.021691 -105.18 
L 92.111107 -105.18 
L 91.200523 -105.18 
L 90.289938 -105.18 
L 89.379354 -105.18 
L 88.46877 -105.18 
L 87.558185 -105.18 
L 86.647601 -105.18 
L 85.737017 -105.18 
L 84.826432 -105.18 
L 83.915848 -105.18 
L 83.005264 -105.18 
L 82.094679 -105.18 
L 81.184095 -105.18 
L 80.27351 -105.18 
L 79.362926 -105.18 
L 78.452342 -105.18 
L 77.541757 -105.18 
L 76.631173 -105.18 
L 75.720589 -105.18 
L 74.810004 -105.18 
L 73.89942 -105.18 
L 72.988836 -105.18 
L 72.078251 -105.18 
L 71.167667 -105.18 
L 70.257083 -105.18 
L 69.346498 -105.18 
L 68.435914 -105.18 
L 67.52533 -105.18 
L 66.614745 -105.18 
L 65.704161 -105.18 
L 64.793577 -105.18 
L 63.882992 -105.18 
L 62.972408 -105.18 
L 62.061823 -105.18 
L 61.151239 -105.18 
L 60.240655 -105.18 
z
" style="stroke: #ed6b4d; stroke-opacity: 0.1"/>
    </defs>
    <g clip-path="url(#p7b9c1166e9)">
     <use xlink:href="#m7b95c6318f" x="0" y="208.8" style="fill: #ed6b4d; fill-opacity: 0.1; stroke: #ed6b4d; stroke-opacity: 0.1"/>
    </g>
   </g>
   <g id="line2d_1">
    <defs>
     <path id="mdb2b67d95b" d="M 0 3 
C 0.795609 3 1.55874 2.683901 2.12132 2.12132 
C 2.683901 1.55874 3 0.795609 3 0 
C 3 -0.795609 2.683901 -1.55874 2.12132 -2.12132 
C 1.55874 -2.683901 0.795609 -3 0 -3 
C -0.795609 -3 -1.55874 -2.683901 -2.12132 -2.12132 
C -2.683901 -1.55874 -3 -0.795609 -3 0 
C -3 0.795609 -2.683901 1.55874 -2.12132 2.12132 
C -1.55874 2.683901 -0.795609 3 0 3 
z
" style="stroke: #0035a0"/>
    </defs>
    <g clip-path="url(#p7b9c1166e9)">
     <use xlink:href="#mdb2b67d95b" x="58.419486" y="98.199875" style="fill: #0035a0; stroke: #0035a0"/>
     <use xlink:href="#mdb2b67d95b" x="85.645958" y="159.176281" style="fill: #0035a0; stroke: #0035a0"/>
     <use xlink:href="#mdb2b67d95b" x="112.87243" y="140.205844" style="fill: #0035a0; stroke: #0035a0"/>
     <use xlink:href="#mdb2b67d95b" x="140.098902" y="110.395156" style="fill: #0035a0; stroke: #0035a0"/>
     <use xlink:href="#mdb2b67d95b" x="167.325374" y="98.199875" style="fill: #0035a0; stroke: #0035a0"/>
     <use xlink:href="#mdb2b67d95b" x="194.551847" y="102.264969" style="fill: #0035a0; stroke: #0035a0"/>
     <use xlink:href="#mdb2b67d95b" x="221.778319" y="98.199875" style="fill: #0035a0; stroke: #0035a0"/>
     <use xlink:href="#mdb2b67d95b" x="249.004791" y="99.554906" style="fill: #0035a0; stroke: #0035a0"/>
     <use xlink:href="#mdb2b67d95b" x="276.231263" y="92.77975" style="fill: #0035a0; stroke: #0035a0"/>
     <use xlink:href="#mdb2b67d95b" x="303.457735" y="90.069687" style="fill: #0035a0; stroke: #0035a0"/>
     <use xlink:href="#mdb2b67d95b" x="330.684207" y="99.554906" style="fill: #0035a0; stroke: #0035a0"/>
    </g>
   </g>
   <g id="line2d_2">
    <path d="M 44.80625 103.62 
L 344.297443 103.62 
" clip-path="url(#p7b9c1166e9)" style="fill: none; stroke: #808080; stroke-width: 0.8; stroke-linecap: square"/>
   </g>
   <g id="matplotlib.axis_1">
    <g id="xtick_1">
     <g id="line2d_3">
      <defs>
       <path id="mfaf0b38ef1" d="M 0 0 
L 0 3.5 
" style="stroke: #000000; stroke-width: 0.8"/>
      </defs>
      <g>
       <use xlink:href="#mfaf0b38ef1" x="58.419486" y="184.921875" style="stroke: #000000; stroke-width: 0.8"/>
      </g>
     </g>
     <g id="text_1">
      <!-- 30 Jun -->
      <g transform="translate(42.655424 199.520312) scale(0.1 -0.1)">
       <defs>
        <path id="DejaVuSans-33" d="M 2597 2516 
Q 3050 2419 3304 2112 
Q 3559 1806 3559 1356 
Q 3559 666 3084 287 
Q 2609 -91 1734 -91 
Q 1441 -91 1130 -33 
Q 819 25 488 141 
L 488 750 
Q 750 597 1062 519 
Q 1375 441 1716 441 
Q 2309 441 2620 675 
Q 2931 909 2931 1356 
Q 2931 1769 2642 2001 
Q 2353 2234 1838 2234 
L 1294 2234 
L 1294 2753 
L 1863 2753 
Q 2328 2753 2575 2939 
Q 2822 3125 2822 3475 
Q 2822 3834 2567 4026 
Q 2313 4219 1838 4219 
Q 1578 4219 1281 4162 
Q 984 4106 628 3988 
L 628 4550 
Q 988 4650 1302 4700 
Q 1616 4750 1894 4750 
Q 2613 4750 3031 4423 
Q 3450 4097 3450 3541 
Q 3450 3153 3228 2886 
Q 3006 2619 2597 2516 
z
" transform="scale(0.015625)"/>
        <path id="DejaVuSans-30" d="M 2034 4250 
Q 1547 4250 1301 3770 
Q 1056 3291 1056 2328 
Q 1056 1369 1301 889 
Q 1547 409 2034 409 
Q 2525 409 2770 889 
Q 3016 1369 3016 2328 
Q 3016 3291 2770 3770 
Q 2525 4250 2034 4250 
z
M 2034 4750 
Q 2819 4750 3233 4129 
Q 3647 3509 3647 2328 
Q 3647 1150 3233 529 
Q 2819 -91 2034 -91 
Q 1250 -91 836 529 
Q 422 1150 422 2328 
Q 422 3509 836 4129 
Q 1250 4750 2034 4750 
z
" transform="scale(0.015625)"/>
        <path id="DejaVuSans-20" transform="scale(0.015625)"/>
        <path id="DejaVuSans-4a" d="M 628 4666 
L 1259 4666 
L 1259 325 
Q 1259 -519 939 -900 
Q 619 -1281 -91 -1281 
L -331 -1281 
L -331 -750 
L -134 -750 
Q 284 -750 456 -515 
Q 628 -281 628 325 
L 628 4666 
z
" transform="scale(0.015625)"/>
        <path id="DejaVuSans-75" d="M 544 1381 
L 544 3500 
L 1119 3500 
L 1119 1403 
Q 1119 906 1312 657 
Q 1506 409 1894 409 
Q 2359 409 2629 706 
Q 2900 1003 2900 1516 
L 2900 3500 
L 3475 3500 
L 3475 0 
L 2900 0 
L 2900 538 
Q 2691 219 2414 64 
Q 2138 -91 1772 -91 
Q 1169 -91 856 284 
Q 544 659 544 1381 
z
M 1991 3584 
L 1991 3584 
z
" transform="scale(0.015625)"/>
        <path id="DejaVuSans-6e" d="M 3513 2113 
L 3513 0 
L 2938 0 
L 2938 2094 
Q 2938 2591 2744 2837 
Q 2550 3084 2163 3084 
Q 1697 3084 1428 2787 
Q 1159 2491 1159 1978 
L 1159 0 
L 581 0 
L 581 3500 
L 1159 3500 
L 1159 2956 
Q 1366 3272 1645 3428 
Q 1925 3584 2291 3584 
Q 2894 3584 3203 3211 
Q 3513 2838 3513 2113 
z
" transform="scale(0.015625)"/>
       </defs>
       <use xlink:href="#DejaVuSans-33"/>
       <use xlink:href="#DejaVuSans-30" x="63.623047"/>
       <use xlink:href="#DejaVuSans-20" x="127.246094"/>
       <use xlink:href="#DejaVuSans-4a" x="159.033203"/>
       <use xlink:href="#DejaVuSans-75" x="188.525391"/>
       <use xlink:href="#DejaVuSans-6e" x="251.904297"/>
      </g>
     </g>
    </g>
    <g id="xtick_2">
     <g id="line2d_4">
      <g>
       <use xlink:href="#mfaf0b38ef1" x="112.87243" y="184.921875" style="stroke: #000000; stroke-width: 0.8"/>
      </g>
     </g>
     <g id="text_2">
      <!-- 02 Jul -->
      <g transform="translate(98.888055 199.520312) scale(0.1 -0.1)">
       <defs>
        <path id="DejaVuSans-32" d="M 1228 531 
L 3431 531 
L 3431 0 
L 469 0 
L 469 531 
Q 828 903 1448 1529 
Q 2069 2156 2228 2338 
Q 2531 2678 2651 2914 
Q 2772 3150 2772 3378 
Q 2772 3750 2511 3984 
Q 2250 4219 1831 4219 
Q 1534 4219 1204 4116 
Q 875 4013 500 3803 
L 500 4441 
Q 881 4594 1212 4672 
Q 1544 4750 1819 4750 
Q 2544 4750 2975 4387 
Q 3406 4025 3406 3419 
Q 3406 3131 3298 2873 
Q 3191 2616 2906 2266 
Q 2828 2175 2409 1742 
Q 1991 1309 1228 531 
z
" transform="scale(0.015625)"/>
        <path id="DejaVuSans-6c" d="M 603 4863 
L 1178 4863 
L 1178 0 
L 603 0 
L 603 4863 
z
" transform="scale(0.015625)"/>
       </defs>
       <use xlink:href="#DejaVuSans-30"/>
       <use xlink:href="#DejaVuSans-32" x="63.623047"/>
       <use xlink:href="#DejaVuSans-20" x="127.246094"/>
       <use xlink:href="#DejaVuSans-4a" x="159.033203"/>
       <use xlink:href="#DejaVuSans-75" x="188.525391"/>
       <use xlink:href="#DejaVuSans-6c" x="251.904297"/>
      </g>
     </g>
    </g>
    <g id="xtick_3">
     <g id="line2d_5">
      <g>
       <use xlink:href="#mfaf0b38ef1" x="167.325374" y="184.921875" style="stroke: #000000; stroke-width: 0.8"/>
      </g>
     </g>
     <g id="text_3">
      <!-- 04 Jul -->
      <g transform="translate(153.340999 199.520312) scale(0.1 -0.1)">
       <defs>
        <path id="DejaVuSans-34" d="M 2419 4116 
L 825 1625 
L 2419 1625 
L 2419 4116 
z
M 2253 4666 
L 3047 4666 
L 3047 1625 
L 3713 1625 
L 3713 1100 
L 3047 1100 
L 3047 0 
L 2419 0 
L 2419 1100 
L 313 1100 
L 313 1709 
L 2253 4666 
z
" transform="scale(0.015625)"/>
       </defs>
       <use xlink:href="#DejaVuSans-30"/>
       <use xlink:href="#DejaVuSans-34" x="63.623047"/>
       <use xlink:href="#DejaVuSans-20" x="127.246094"/>
       <use xlink:href="#DejaVuSans-4a" x="159.033203"/>
       <use xlink:href="#DejaVuSans-75" x="188.525391"/>
       <use xlink:href="#DejaVuSans-6c" x="251.904297"/>
      </g>
     </g>
    </g>
    <g id="xtick_4">
     <g id="line2d_6">
      <g>
       <use xlink:href="#mfaf0b38ef1" x="221.778319" y="184.921875" style="stroke: #000000; stroke-width: 0.8"/>
      </g>
     </g>
     <g id="text_4">
      <!-- 06 Jul -->
      <g transform="translate(207.793944 199.520312) scale(0.1 -0.1)">
       <defs>
        <path id="DejaVuSans-36" d="M 2113 2584 
Q 1688 2584 1439 2293 
Q 1191 2003 1191 1497 
Q 1191 994 1439 701 
Q 1688 409 2113 409 
Q 2538 409 2786 701 
Q 3034 994 3034 1497 
Q 3034 2003 2786 2293 
Q 2538 2584 2113 2584 
z
M 3366 4563 
L 3366 3988 
Q 3128 4100 2886 4159 
Q 2644 4219 2406 4219 
Q 1781 4219 1451 3797 
Q 1122 3375 1075 2522 
Q 1259 2794 1537 2939 
Q 1816 3084 2150 3084 
Q 2853 3084 3261 2657 
Q 3669 2231 3669 1497 
Q 3669 778 3244 343 
Q 2819 -91 2113 -91 
Q 1303 -91 875 529 
Q 447 1150 447 2328 
Q 447 3434 972 4092 
Q 1497 4750 2381 4750 
Q 2619 4750 2861 4703 
Q 3103 4656 3366 4563 
z
" transform="scale(0.015625)"/>
       </defs>
       <use xlink:href="#DejaVuSans-30"/>
       <use xlink:href="#DejaVuSans-36" x="63.623047"/>
       <use xlink:href="#DejaVuSans-20" x="127.246094"/>
       <use xlink:href="#DejaVuSans-4a" x="159.033203"/>
       <use xlink:href="#DejaVuSans-75" x="188.525391"/>
       <use xlink:href="#DejaVuSans-6c" x="251.904297"/>
      </g>
     </g>
    </g>
    <g id="xtick_5">
     <g id="line2d_7">
      <g>
       <use xlink:href="#mfaf0b38ef1" x="276.231263" y="184.921875" style="stroke: #000000; stroke-width: 0.8"/>
      </g>
     </g>
     <g id="text_5">
      <!-- 08 Jul -->
      <g transform="translate(262.246888 199.520312) scale(0.1 -0.1)">
       <defs>
        <path id="DejaVuSans-38" d="M 2034 2216 
Q 1584 2216 1326 1975 
Q 1069 1734 1069 1313 
Q 1069 891 1326 650 
Q 1584 409 2034 409 
Q 2484 409 2743 651 
Q 3003 894 3003 1313 
Q 3003 1734 2745 1975 
Q 2488 2216 2034 2216 
z
M 1403 2484 
Q 997 2584 770 2862 
Q 544 3141 544 3541 
Q 544 4100 942 4425 
Q 1341 4750 2034 4750 
Q 2731 4750 3128 4425 
Q 3525 4100 3525 3541 
Q 3525 3141 3298 2862 
Q 3072 2584 2669 2484 
Q 3125 2378 3379 2068 
Q 3634 1759 3634 1313 
Q 3634 634 3220 271 
Q 2806 -91 2034 -91 
Q 1263 -91 848 271 
Q 434 634 434 1313 
Q 434 1759 690 2068 
Q 947 2378 1403 2484 
z
M 1172 3481 
Q 1172 3119 1398 2916 
Q 1625 2713 2034 2713 
Q 2441 2713 2670 2916 
Q 2900 3119 2900 3481 
Q 2900 3844 2670 4047 
Q 2441 4250 2034 4250 
Q 1625 4250 1398 4047 
Q 1172 3844 1172 3481 
z
" transform="scale(0.015625)"/>
       </defs>
       <use xlink:href="#DejaVuSans-30"/>
       <use xlink:href="#DejaVuSans-38" x="63.623047"/>
       <use xlink:href="#DejaVuSans-20" x="127.246094"/>
       <use xlink:href="#DejaVuSans-4a" x="159.033203"/>
       <use xlink:href="#DejaVuSans-75" x="188.525391"/>
       <use xlink:href="#DejaVuSans-6c" x="251.904297"/>
      </g>
     </g>
    </g>
    <g id="xtick_6">
     <g id="line2d_8">
      <g>
       <use xlink:href="#mfaf0b38ef1" x="330.684207" y="184.921875" style="stroke: #000000; stroke-width: 0.8"/>
      </g>
     </g>
     <g id="text_6">
      <!-- 10 Jul -->
      <g transform="translate(316.699832 199.520312) scale(0.1 -0.1)">
       <defs>
        <path id="DejaVuSans-31" d="M 794 531 
L 1825 531 
L 1825 4091 
L 703 3866 
L 703 4441 
L 1819 4666 
L 2450 4666 
L 2450 531 
L 3481 531 
L 3481 0 
L 794 0 
L 794 531 
z
" transform="scale(0.015625)"/>
       </defs>
       <use xlink:href="#DejaVuSans-31"/>
       <use xlink:href="#DejaVuSans-30" x="63.623047"/>
       <use xlink:href="#DejaVuSans-20" x="127.246094"/>
       <use xlink:href="#DejaVuSans-4a" x="159.033203"/>
       <use xlink:href="#DejaVuSans-75" x="188.525391"/>
       <use xlink:href="#DejaVuSans-6c" x="251.904297"/>
      </g>
     </g>
    </g>
   </g>
   <g id="matplotlib.axis_2">
    <g id="ytick_1">
     <g id="text_7">
      <!-- −50% -->
      <g transform="translate(7.2 175.170781) scale(0.1 -0.1)">
       <defs>
        <path id="DejaVuSans-2212" d="M 678 2272 
L 4684 2272 
L 4684 1741 
L 678 1741 
L 678 2272 
z
" transform="scale(0.015625)"/>
        <path id="DejaVuSans-35" d="M 691 4666 
L 3169 4666 
L 3169 4134 
L 1269 4134 
L 1269 2991 
Q 1406 3038 1543 3061 
Q 1681 3084 1819 3084 
Q 2600 3084 3056 2656 
Q 3513 2228 3513 1497 
Q 3513 744 3044 326 
Q 2575 -91 1722 -91 
Q 1428 -91 1123 -41 
Q 819 9 494 109 
L 494 744 
Q 775 591 1075 516 
Q 1375 441 1709 441 
Q 2250 441 2565 725 
Q 2881 1009 2881 1497 
Q 2881 1984 2565 2268 
Q 2250 2553 1709 2553 
Q 1456 2553 1204 2497 
Q 953 2441 691 2322 
L 691 4666 
z
" transform="scale(0.015625)"/>
        <path id="DejaVuSans-25" d="M 4653 2053 
Q 4381 2053 4226 1822 
Q 4072 1591 4072 1178 
Q 4072 772 4226 539 
Q 4381 306 4653 306 
Q 4919 306 5073 539 
Q 5228 772 5228 1178 
Q 5228 1588 5073 1820 
Q 4919 2053 4653 2053 
z
M 4653 2450 
Q 5147 2450 5437 2106 
Q 5728 1763 5728 1178 
Q 5728 594 5436 251 
Q 5144 -91 4653 -91 
Q 4153 -91 3862 251 
Q 3572 594 3572 1178 
Q 3572 1766 3864 2108 
Q 4156 2450 4653 2450 
z
M 1428 4353 
Q 1159 4353 1004 4120 
Q 850 3888 850 3481 
Q 850 3069 1003 2837 
Q 1156 2606 1428 2606 
Q 1700 2606 1854 2837 
Q 2009 3069 2009 3481 
Q 2009 3884 1853 4118 
Q 1697 4353 1428 4353 
z
M 4250 4750 
L 4750 4750 
L 1831 -91 
L 1331 -91 
L 4250 4750 
z
M 1428 4750 
Q 1922 4750 2215 4408 
Q 2509 4066 2509 3481 
Q 2509 2891 2217 2550 
Q 1925 2209 1428 2209 
Q 931 2209 642 2551 
Q 353 2894 353 3481 
Q 353 4063 643 4406 
Q 934 4750 1428 4750 
z
" transform="scale(0.015625)"/>
       </defs>
       <use xlink:href="#DejaVuSans-2212"/>
       <use xlink:href="#DejaVuSans-35" x="83.789062"/>
       <use xlink:href="#DejaVuSans-30" x="147.412109"/>
       <use xlink:href="#DejaVuSans-25" x="211.035156"/>
      </g>
     </g>
    </g>
    <g id="ytick_2">
     <g id="text_8">
      <!-- −25% -->
      <g transform="translate(7.2 141.295) scale(0.1 -0.1)">
       <use xlink:href="#DejaVuSans-2212"/>
       <use xlink:href="#DejaVuSans-32" x="83.789062"/>
       <use xlink:href="#DejaVuSans-35" x="147.412109"/>
       <use xlink:href="#DejaVuSans-25" x="211.035156"/>
      </g>
     </g>
    </g>
    <g id="ytick_3">
     <g id="text_9">
      <!-- 0% -->
      <g transform="translate(21.942188 107.419219) scale(0.1 -0.1)">
       <use xlink:href="#DejaVuSans-30"/>
       <use xlink:href="#DejaVuSans-25" x="63.623047"/>
      </g>
     </g>
    </g>
    <g id="ytick_4">
     <g id="text_10">
      <!-- 25% -->
      <g transform="translate(15.579688 73.543437) scale(0.1 -0.1)">
       <use xlink:href="#DejaVuSans-32"/>
       <use xlink:href="#DejaVuSans-35" x="63.623047"/>
       <use xlink:href="#DejaVuSans-25" x="127.246094"/>
      </g>
     </g>
    </g>
    <g id="ytick_5">
     <g id="text_11">
      <!-- 50% -->
      <g transform="translate(15.579688 39.667656) scale(0.1 -0.1)">
       <use xlink:href="#DejaVuSans-35"/>
       <use xlink:href="#DejaVuSans-30" x="63.623047"/>
       <use xlink:href="#DejaVuSans-25" x="127.246094"/>
      </g>
     </g>
    </g>
   </g>
   <g id="line2d_9">
    <path d="M 58.419486 98.199875 
L 60.240655 106.353001 
L 62.061823 113.820508 
L 63.882992 120.625901 
L 65.704161 126.792689 
L 67.52533 132.344378 
L 69.346498 137.304474 
L 71.167667 141.696484 
L 72.988836 145.543916 
L 74.810004 148.870275 
L 76.631173 151.699069 
L 78.452342 154.053805 
L 80.27351 155.957988 
L 82.094679 157.435127 
L 83.915848 158.508728 
L 85.737017 159.202297 
L 87.558185 159.539341 
L 89.379354 159.543368 
L 91.200523 159.237883 
L 93.021691 158.646394 
L 94.84286 157.792408 
L 96.664029 156.699431 
L 98.485198 155.39097 
L 101.216951 153.075667 
L 103.948704 150.40775 
L 107.591041 146.439141 
L 112.143963 141.081675 
L 124.892144 125.919862 
L 130.35565 119.845927 
L 134.908572 115.166566 
L 138.550909 111.747067 
L 142.193246 108.671087 
L 144.924999 106.608131 
L 147.656752 104.759764 
L 150.388506 103.130555 
L 153.120259 101.725075 
L 155.852012 100.547892 
L 158.583765 99.603578 
L 161.315518 98.896701 
L 164.047271 98.431833 
L 166.779024 98.213542 
L 169.510777 98.241859 
L 172.24253 98.483264 
L 175.884867 99.052668 
L 181.348373 100.203061 
L 187.722464 101.530184 
L 191.364801 102.056755 
L 194.096554 102.252806 
L 196.828307 102.233114 
L 199.560061 102.015996 
L 203.202398 101.492102 
L 208.665904 100.406803 
L 215.950579 98.925001 
L 219.592916 98.39389 
L 222.324669 98.169149 
L 225.967007 98.133433 
L 229.609344 98.327704 
L 235.983435 98.951866 
L 242.357525 99.526556 
L 245.999862 99.648133 
L 248.731616 99.57208 
L 251.463369 99.318569 
L 255.105706 98.728591 
L 258.748043 97.908855 
L 263.300965 96.657841 
L 278.780899 92.128453 
L 283.333821 91.145812 
L 287.886743 90.412201 
L 292.439664 89.948434 
L 296.082002 89.785695 
L 299.724339 89.819634 
L 303.366677 90.060907 
L 307.009014 90.520171 
L 310.651351 91.208084 
L 314.293689 92.135301 
L 317.936026 93.312479 
L 321.578364 94.750276 
L 325.220701 96.459347 
L 328.863038 98.45035 
L 330.684207 99.554906 
L 330.684207 99.554906 
" clip-path="url(#p7b9c1166e9)" style="fill: none; stroke: #0035a0; stroke-width: 3; stroke-linecap: round"/>
   </g>
   <g id="text_12">
    <!-- 3% -->
    <g transform="translate(322.752176 89.554906) scale(0.1 -0.1)">
     <use xlink:href="#DejaVuSans-33"/>
     <use xlink:href="#DejaVuSans-25" x="63.623047"/>
    </g>
   </g>
   <g id="text_13">
    <!-- St. George's - population change trends -->
    <g transform="translate(75.012159 16.318125) scale(0.12 -0.12)">
     <defs>
      <path id="DejaVuSans-53" d="M 3425 4513 
L 3425 3897 
Q 3066 4069 2747 4153 
Q 2428 4238 2131 4238 
Q 1616 4238 1336 4038 
Q 1056 3838 1056 3469 
Q 1056 3159 1242 3001 
Q 1428 2844 1947 2747 
L 2328 2669 
Q 3034 2534 3370 2195 
Q 3706 1856 3706 1288 
Q 3706 609 3251 259 
Q 2797 -91 1919 -91 
Q 1588 -91 1214 -16 
Q 841 59 441 206 
L 441 856 
Q 825 641 1194 531 
Q 1563 422 1919 422 
Q 2459 422 2753 634 
Q 3047 847 3047 1241 
Q 3047 1584 2836 1778 
Q 2625 1972 2144 2069 
L 1759 2144 
Q 1053 2284 737 2584 
Q 422 2884 422 3419 
Q 422 4038 858 4394 
Q 1294 4750 2059 4750 
Q 2388 4750 2728 4690 
Q 3069 4631 3425 4513 
z
" transform="scale(0.015625)"/>
      <path id="DejaVuSans-74" d="M 1172 4494 
L 1172 3500 
L 2356 3500 
L 2356 3053 
L 1172 3053 
L 1172 1153 
Q 1172 725 1289 603 
Q 1406 481 1766 481 
L 2356 481 
L 2356 0 
L 1766 0 
Q 1100 0 847 248 
Q 594 497 594 1153 
L 594 3053 
L 172 3053 
L 172 3500 
L 594 3500 
L 594 4494 
L 1172 4494 
z
" transform="scale(0.015625)"/>
      <path id="DejaVuSans-2e" d="M 684 794 
L 1344 794 
L 1344 0 
L 684 0 
L 684 794 
z
" transform="scale(0.015625)"/>
      <path id="DejaVuSans-47" d="M 3809 666 
L 3809 1919 
L 2778 1919 
L 2778 2438 
L 4434 2438 
L 4434 434 
Q 4069 175 3628 42 
Q 3188 -91 2688 -91 
Q 1594 -91 976 548 
Q 359 1188 359 2328 
Q 359 3472 976 4111 
Q 1594 4750 2688 4750 
Q 3144 4750 3555 4637 
Q 3966 4525 4313 4306 
L 4313 3634 
Q 3963 3931 3569 4081 
Q 3175 4231 2741 4231 
Q 1884 4231 1454 3753 
Q 1025 3275 1025 2328 
Q 1025 1384 1454 906 
Q 1884 428 2741 428 
Q 3075 428 3337 486 
Q 3600 544 3809 666 
z
" transform="scale(0.015625)"/>
      <path id="DejaVuSans-65" d="M 3597 1894 
L 3597 1613 
L 953 1613 
Q 991 1019 1311 708 
Q 1631 397 2203 397 
Q 2534 397 2845 478 
Q 3156 559 3463 722 
L 3463 178 
Q 3153 47 2828 -22 
Q 2503 -91 2169 -91 
Q 1331 -91 842 396 
Q 353 884 353 1716 
Q 353 2575 817 3079 
Q 1281 3584 2069 3584 
Q 2775 3584 3186 3129 
Q 3597 2675 3597 1894 
z
M 3022 2063 
Q 3016 2534 2758 2815 
Q 2500 3097 2075 3097 
Q 1594 3097 1305 2825 
Q 1016 2553 972 2059 
L 3022 2063 
z
" transform="scale(0.015625)"/>
      <path id="DejaVuSans-6f" d="M 1959 3097 
Q 1497 3097 1228 2736 
Q 959 2375 959 1747 
Q 959 1119 1226 758 
Q 1494 397 1959 397 
Q 2419 397 2687 759 
Q 2956 1122 2956 1747 
Q 2956 2369 2687 2733 
Q 2419 3097 1959 3097 
z
M 1959 3584 
Q 2709 3584 3137 3096 
Q 3566 2609 3566 1747 
Q 3566 888 3137 398 
Q 2709 -91 1959 -91 
Q 1206 -91 779 398 
Q 353 888 353 1747 
Q 353 2609 779 3096 
Q 1206 3584 1959 3584 
z
" transform="scale(0.015625)"/>
      <path id="DejaVuSans-72" d="M 2631 2963 
Q 2534 3019 2420 3045 
Q 2306 3072 2169 3072 
Q 1681 3072 1420 2755 
Q 1159 2438 1159 1844 
L 1159 0 
L 581 0 
L 581 3500 
L 1159 3500 
L 1159 2956 
Q 1341 3275 1631 3429 
Q 1922 3584 2338 3584 
Q 2397 3584 2469 3576 
Q 2541 3569 2628 3553 
L 2631 2963 
z
" transform="scale(0.015625)"/>
      <path id="DejaVuSans-67" d="M 2906 1791 
Q 2906 2416 2648 2759 
Q 2391 3103 1925 3103 
Q 1463 3103 1205 2759 
Q 947 2416 947 1791 
Q 947 1169 1205 825 
Q 1463 481 1925 481 
Q 2391 481 2648 825 
Q 2906 1169 2906 1791 
z
M 3481 434 
Q 3481 -459 3084 -895 
Q 2688 -1331 1869 -1331 
Q 1566 -1331 1297 -1286 
Q 1028 -1241 775 -1147 
L 775 -588 
Q 1028 -725 1275 -790 
Q 1522 -856 1778 -856 
Q 2344 -856 2625 -561 
Q 2906 -266 2906 331 
L 2906 616 
Q 2728 306 2450 153 
Q 2172 0 1784 0 
Q 1141 0 747 490 
Q 353 981 353 1791 
Q 353 2603 747 3093 
Q 1141 3584 1784 3584 
Q 2172 3584 2450 3431 
Q 2728 3278 2906 2969 
L 2906 3500 
L 3481 3500 
L 3481 434 
z
" transform="scale(0.015625)"/>
      <path id="DejaVuSans-27" d="M 1147 4666 
L 1147 2931 
L 616 2931 
L 616 4666 
L 1147 4666 
z
" transform="scale(0.015625)"/>
      <path id="DejaVuSans-73" d="M 2834 3397 
L 2834 2853 
Q 2591 2978 2328 3040 
Q 2066 3103 1784 3103 
Q 1356 3103 1142 2972 
Q 928 2841 928 2578 
Q 928 2378 1081 2264 
Q 1234 2150 1697 2047 
L 1894 2003 
Q 2506 1872 2764 1633 
Q 3022 1394 3022 966 
Q 3022 478 2636 193 
Q 2250 -91 1575 -91 
Q 1294 -91 989 -36 
Q 684 19 347 128 
L 347 722 
Q 666 556 975 473 
Q 1284 391 1588 391 
Q 1994 391 2212 530 
Q 2431 669 2431 922 
Q 2431 1156 2273 1281 
Q 2116 1406 1581 1522 
L 1381 1569 
Q 847 1681 609 1914 
Q 372 2147 372 2553 
Q 372 3047 722 3315 
Q 1072 3584 1716 3584 
Q 2034 3584 2315 3537 
Q 2597 3491 2834 3397 
z
" transform="scale(0.015625)"/>
      <path id="DejaVuSans-2d" d="M 313 2009 
L 1997 2009 
L 1997 1497 
L 313 1497 
L 313 2009 
z
" transform="scale(0.015625)"/>
      <path id="DejaVuSans-70" d="M 1159 525 
L 1159 -1331 
L 581 -1331 
L 581 3500 
L 1159 3500 
L 1159 2969 
Q 1341 3281 1617 3432 
Q 1894 3584 2278 3584 
Q 2916 3584 3314 3078 
Q 3713 2572 3713 1747 
Q 3713 922 3314 415 
Q 2916 -91 2278 -91 
Q 1894 -91 1617 61 
Q 1341 213 1159 525 
z
M 3116 1747 
Q 3116 2381 2855 2742 
Q 2594 3103 2138 3103 
Q 1681 3103 1420 2742 
Q 1159 2381 1159 1747 
Q 1159 1113 1420 752 
Q 1681 391 2138 391 
Q 2594 391 2855 752 
Q 3116 1113 3116 1747 
z
" transform="scale(0.015625)"/>
      <path id="DejaVuSans-61" d="M 2194 1759 
Q 1497 1759 1228 1600 
Q 959 1441 959 1056 
Q 959 750 1161 570 
Q 1363 391 1709 391 
Q 2188 391 2477 730 
Q 2766 1069 2766 1631 
L 2766 1759 
L 2194 1759 
z
M 3341 1997 
L 3341 0 
L 2766 0 
L 2766 531 
Q 2569 213 2275 61 
Q 1981 -91 1556 -91 
Q 1019 -91 701 211 
Q 384 513 384 1019 
Q 384 1609 779 1909 
Q 1175 2209 1959 2209 
L 2766 2209 
L 2766 2266 
Q 2766 2663 2505 2880 
Q 2244 3097 1772 3097 
Q 1472 3097 1187 3025 
Q 903 2953 641 2809 
L 641 3341 
Q 956 3463 1253 3523 
Q 1550 3584 1831 3584 
Q 2591 3584 2966 3190 
Q 3341 2797 3341 1997 
z
" transform="scale(0.015625)"/>
      <path id="DejaVuSans-69" d="M 603 3500 
L 1178 3500 
L 1178 0 
L 603 0 
L 603 3500 
z
M 603 4863 
L 1178 4863 
L 1178 4134 
L 603 4134 
L 603 4863 
z
" transform="scale(0.015625)"/>
      <path id="DejaVuSans-63" d="M 3122 3366 
L 3122 2828 
Q 2878 2963 2633 3030 
Q 2388 3097 2138 3097 
Q 1578 3097 1268 2742 
Q 959 2388 959 1747 
Q 959 1106 1268 751 
Q 1578 397 2138 397 
Q 2388 397 2633 464 
Q 2878 531 3122 666 
L 3122 134 
Q 2881 22 2623 -34 
Q 2366 -91 2075 -91 
Q 1284 -91 818 406 
Q 353 903 353 1747 
Q 353 2603 823 3093 
Q 1294 3584 2113 3584 
Q 2378 3584 2631 3529 
Q 2884 3475 3122 3366 
z
" transform="scale(0.015625)"/>
      <path id="DejaVuSans-68" d="M 3513 2113 
L 3513 0 
L 2938 0 
L 2938 2094 
Q 2938 2591 2744 2837 
Q 2550 3084 2163 3084 
Q 1697 3084 1428 2787 
Q 1159 2491 1159 1978 
L 1159 0 
L 581 0 
L 581 4863 
L 1159 4863 
L 1159 2956 
Q 1366 3272 1645 3428 
Q 1925 3584 2291 3584 
Q 2894 3584 3203 3211 
Q 3513 2838 3513 2113 
z
" transform="scale(0.015625)"/>
      <path id="DejaVuSans-64" d="M 2906 2969 
L 2906 4863 
L 3481 4863 
L 3481 0 
L 2906 0 
L 2906 525 
Q 2725 213 2448 61 
Q 2172 -91 1784 -91 
Q 1150 -91 751 415 
Q 353 922 353 1747 
Q 353 2572 751 3078 
Q 1150 3584 1784 3584 
Q 2172 3584 2448 3432 
Q 2725 3281 2906 2969 
z
M 947 1747 
Q 947 1113 1208 752 
Q 1469 391 1925 391 
Q 2381 391 2643 752 
Q 2906 1113 2906 1747 
Q 2906 2381 2643 2742 
Q 2381 3103 1925 3103 
Q 1469 3103 1208 2742 
Q 947 2381 947 1747 
z
" transform="scale(0.015625)"/>
     </defs>
     <use xlink:href="#DejaVuSans-53"/>
     <use xlink:href="#DejaVuSans-74" x="63.476562"/>
     <use xlink:href="#DejaVuSans-2e" x="102.685547"/>
     <use xlink:href="#DejaVuSans-20" x="134.472656"/>
     <use xlink:href="#DejaVuSans-47" x="166.259766"/>
     <use xlink:href="#DejaVuSans-65" x="243.75"/>
     <use xlink:href="#DejaVuSans-6f" x="305.273438"/>
     <use xlink:href="#DejaVuSans-72" x="366.455078"/>
     <use xlink:href="#DejaVuSans-67" x="405.818359"/>
     <use xlink:href="#DejaVuSans-65" x="469.294922"/>
     <use xlink:href="#DejaVuSans-27" x="530.818359"/>
     <use xlink:href="#DejaVuSans-73" x="558.308594"/>
     <use xlink:href="#DejaVuSans-20" x="610.408203"/>
     <use xlink:href="#DejaVuSans-2d" x="642.195312"/>
     <use xlink:href="#DejaVuSans-20" x="678.279297"/>
     <use xlink:href="#DejaVuSans-70" x="710.066406"/>
     <use xlink:href="#DejaVuSans-6f" x="773.542969"/>
     <use xlink:href="#DejaVuSans-70" x="834.724609"/>
     <use xlink:href="#DejaVuSans-75" x="898.201172"/>
     <use xlink:href="#DejaVuSans-6c" x="961.580078"/>
     <use xlink:href="#DejaVuSans-61" x="989.363281"/>
     <use xlink:href="#DejaVuSans-74" x="1050.642578"/>
     <use xlink:href="#DejaVuSans-69" x="1089.851562"/>
     <use xlink:href="#DejaVuSans-6f" x="1117.634766"/>
     <use xlink:href="#DejaVuSans-6e" x="1178.816406"/>
     <use xlink:href="#DejaVuSans-20" x="1242.195312"/>
     <use xlink:href="#DejaVuSans-63" x="1273.982422"/>
     <use xlink:href="#DejaVuSans-68" x="1328.962891"/>
     <use xlink:href="#DejaVuSans-61" x="1392.341797"/>
     <use xlink:href="#DejaVuSans-6e" x="1453.621094"/>
     <use xlink:href="#DejaVuSans-67" x="1517"/>
     <use xlink:href="#DejaVuSans-65" x="1580.476562"/>
     <use xlink:href="#DejaVuSans-20" x="1642"/>
     <use xlink:href="#DejaVuSans-74" x="1673.787109"/>
     <use xlink:href="#DejaVuSans-72" x="1712.996094"/>
     <use xlink:href="#DejaVuSans-65" x="1751.859375"/>
     <use xlink:href="#DejaVuSans-6e" x="1813.382812"/>
     <use xlink:href="#DejaVuSans-64" x="1876.761719"/>
     <use xlink:href="#DejaVuSans-73" x="1940.238281"/>
    </g>
   </g>
  </g>
 </g>
 <defs>
  <clipPath id="p7b9c1166e9">
   <rect x="44.80625" y="22.318125" width="299.491193" height="162.60375"/>
  </clipPath>
 </defs>
</svg>
