<?xml version="1.0" encoding="utf-8"?>
<!-- Generator: Adobe Illustrator 22.0.1, SVG Export Plug-In . SVG Version: 6.00 Build 0)  -->
<svg version="1.1" id="Calque_1" xmlns="http://www.w3.org/2000/svg" xmlns:xlink="http://www.w3.org/1999/xlink" x="0px" y="0px"
	 viewBox="0 0 369 184.5" style="enable-background:new 0 0 369 184.5;" xml:space="preserve">
<style type="text/css">
	.st0{fill:#FFFFFF;}
</style>
<g>
	<rect x="152.1" y="42.3" class="st0" width="9.4" height="65.5"/>
	<path class="st0" d="M244.7,74.9c0-17.6-13.5-33.5-35.3-33.5c-22.4,0-35,16.4-35,33.8c0,18.2,14,33.4,34.6,33.4
		C230.3,108.6,244.7,93.7,244.7,74.9z M209.5,99.9c-13.7,0-25.4-9.8-25.4-24.7c0-10.9,7.4-25,25.7-25c17.1,0,25.3,13.7,25.3,24.6
		c0,5.7-2.4,12.8-6.5,17.3C224.1,97,216.5,99.9,209.5,99.9z"/>
	<polygon class="st0" points="309.6,42.3 287.9,69.2 266.1,42.3 257.3,42.3 257.3,107.7 266.7,107.7 266.7,56.8 287.1,82.1 
		288.8,82.1 309,56.8 309,107.7 318.4,107.7 318.4,42.3 	"/>
	<path class="st0" d="M67.5,132.6c0,2.1-0.2,3.3-0.6,4.1c-0.6,1.1-2.2,2.9-5.7,2.9c-2.6,0-4-0.9-5-1.8c-1.1-1.1-1.4-2.2-1.4-5.1
		v-12.4h-3.2v12.4c0,1.5,0,4,1.2,5.9c1.8,2.8,5.2,3.8,8.4,3.8c2.5,0,5-0.6,7-2.4c2.5-2.2,2.5-5.2,2.5-7.4v-12.4h-3.2V132.6z"/>
	<polygon class="st0" points="96.7,137.1 81.7,120.2 79.1,120.2 79.1,142 82.1,142 82.1,125.2 97,142 99.7,142 99.7,120.2 
		96.7,120.2 	"/>
	<polygon class="st0" points="130.4,129.1 123,120.2 120,120.2 120,142 123.2,142 123.2,125 130.1,133.4 130.7,133.4 137.6,125 
		137.6,142 140.8,142 140.8,120.2 137.8,120.2 	"/>
	<rect x="149.6" y="120.2" class="st0" width="3.2" height="21.8"/>
	<path class="st0" d="M172.6,134h4.3v4.5c-2.1,0.7-3.2,1-4.9,1c-5.4,0-8.9-3.6-8.9-8.4c0-5.2,4.2-8.4,8.6-8.4c1.2,0,4.2,0.2,7.9,2.3
		v-3.2c-2.4-1-4.7-1.9-7.8-1.9c-7.6,0-12,5.6-12,11.4c0,5,3.6,11,12.2,11c3.7,0,6.5-1.1,8.2-1.8v-9.2h-7.5V134z"/>
	<path class="st0" d="M197.8,131.6c2.4-0.9,3.7-2.8,3.7-5.4c0-2.2-1.1-4.4-3.5-5.4c-1.4-0.6-2.8-0.7-3.8-0.7h-5.6V142h3.2v-9.5h0.8
		c1.5,0,2.6,0,4.8,2.8c0.7,0.9,3.8,5.7,4.6,6.8h3.8c-1.5-2.1-2.1-2.8-3-4.4C201,135,199.8,132.9,197.8,131.6z M196.1,129.4
		c-0.9,0.3-2.6,0.3-3.1,0.3h-1.2v-6.9h1c1.9,0,3,0.1,3.8,0.5c1,0.5,1.7,1.7,1.7,2.9C198.2,127.4,197.6,128.8,196.1,129.4z"/>
	<path class="st0" d="M218.8,120l-9.6,22h3.3l2.8-6.4h9.5l3,6.4h3.3l-10-22H218.8z M216.6,132.7l3.3-7.9l3.6,7.9H216.6z"/>
	<polygon class="st0" points="232.2,122.9 239.8,122.9 239.8,142 243,142 243,122.9 250.8,122.9 250.8,120.2 232.2,120.2 	"/>
	<rect x="257.8" y="120.2" class="st0" width="3.2" height="21.8"/>
	<path class="st0" d="M279.6,119.9c-7.6,0-11.9,5.5-11.9,11.3c0,6.1,4.8,11.1,11.8,11.1c7.3,0,12.2-5,12.2-11.2
		C291.6,125.2,287,119.9,279.6,119.9z M286.1,136.8c-1.5,1.6-4.1,2.6-6.5,2.6c-4.7,0-8.6-3.3-8.6-8.2c0-3.6,2.5-8.3,8.7-8.3
		c5.8,0,8.6,4.6,8.6,8.2C288.3,132.9,287.5,135.3,286.1,136.8z"/>
	<polygon class="st0" points="315.3,137.1 300.3,120.2 297.7,120.2 297.7,142 300.7,142 300.7,125.2 315.6,142 318.3,142 
		318.3,120.2 315.3,120.2 	"/>
	<path class="st0" d="M85.2,68.8c0.7,0,1.3-0.6,1.3-1.3s-0.6-1.3-1.3-1.3c-0.7,0-1.3,0.6-1.3,1.3S84.4,68.8,85.2,68.8z"/>
	<path class="st0" d="M80.1,76.8c0.1,0.1,0.2,0.1,0.3,0.1c0.2,0,0.4-0.1,0.5-0.3l2.4-5.6l0.2,5.4l-0.9,6.9c0,0.3,0.1,0.5,0.4,0.6
		c0.1,0,0.1,0,0.2,0c0.3,0,0.5-0.2,0.6-0.5l0.9-6.6h1.2l0.9,6.6c0,0.3,0.3,0.5,0.6,0.5c0.1,0,0.1,0,0.2,0c0.3-0.1,0.4-0.4,0.4-0.6
		l-0.9-6.9L87,71l2.4,5.6c0,0,0,0,0,0c0,0,0,0.1,0,0.1c0,0,0,0,0,0c0,0,0,0,0,0.1c0,0,0,0,0,0c0,0,0,0,0.1,0.1c0,0,0,0,0,0
		c0,0,0.1,0,0.1,0c0,0,0,0,0,0c0,0,0,0,0.1,0c0,0,0,0,0,0c0,0,0.1,0,0.1,0c0,0,0,0,0,0h0.5l-0.8,3.9c-0.1,0.3,0,0.6,0.2,0.8
		c0.1,0.1,0.3,0.2,0.4,0.3v1.6c0,0.3,0.2,0.5,0.5,0.5s0.5-0.2,0.5-0.5v-1.6l0,0c0,0,0,0,0,0l0.3,0l0.3,0c0,0,0,0,0,0c0,0,0,0,0,0
		l0,0v1.6c0,0.3,0.2,0.5,0.5,0.5c0.3,0,0.5-0.2,0.5-0.5v-1.6c0.2-0.1,0.3-0.2,0.4-0.3c0.2-0.2,0.3-0.5,0.2-0.8l-0.8-3.9h0.5l0,0
		c0,0,0.1,0,0.1,0c0,0,0,0,0,0c0,0,0,0,0.1,0c0,0,0,0,0,0c0,0,0.1,0,0.1,0c0,0,0,0,0,0c0,0,0,0,0.1-0.1c0,0,0,0,0,0c0,0,0,0,0-0.1
		c0,0,0,0,0,0c0,0,0-0.1,0-0.1c0,0,0,0,0,0l2.5-5.8l0.5,2.4c0.1,0.4,0.1,0.8,0,1.2L94.4,84h3.1h0.8h3.1l-2.3-9.7
		c-0.1-0.4-0.1-0.8,0-1.2l0.5-2.4l1.9,4.7c0.1,0.2,0.3,0.4,0.5,0.4c0.1,0,0.1,0,0.2,0c0.3-0.1,0.4-0.5,0.3-0.7l-2.1-5.2
		c-0.1-0.2-0.3-0.4-0.5-0.4h0h-0.9h-0.7h-0.8h-0.6h-0.9h0c-0.2,0-0.4,0.1-0.5,0.3l-2.6,6h-2.5l-2.6-6c-0.1-0.2-0.3-0.3-0.5-0.3h-2
		h-2c-0.2,0-0.4,0.1-0.5,0.3l-2.7,6.3C79.8,76.4,79.9,76.7,80.1,76.8z"/>
	<path class="st0" d="M97.9,68.8c0.7,0,1.3-0.6,1.3-1.3s-0.6-1.3-1.3-1.3c-0.7,0-1.3,0.6-1.3,1.3S97.1,68.8,97.9,68.8z"/>
	<path class="st0" d="M91.5,75.5c0.6,0,1-0.4,1-1c0-0.6-0.4-1-1-1c-0.6,0-1,0.4-1,1C90.5,75,91,75.5,91.5,75.5z"/>
	<path class="st0" d="M131.6,73.1c0-10.4-4.8-22-12.5-30.7h-6.9c1.8,1.7,4.3,4.6,4.3,4.6c6.7,7.5,10.6,17.5,10.6,26.4
		c0,0.1,0,0.2,0,0.3H116c-1.7-17.5-15.6-31.3-32.5-31.3c-18,0-32.7,15.5-32.7,34.7c0,10.4,4.8,22,12.5,30.7h6.9
		c-1.8-1.7-4.3-4.6-4.3-4.6c-6.7-7.5-10.6-17.5-10.6-26.4c0-0.1,0-0.2,0-0.3h11.1c1.7,17.5,15.6,31.3,32.5,31.3
		C117,107.8,131.6,92.2,131.6,73.1z M99.7,103.2V95c4.7,0.2,8.8,2.1,11.9,5C108,102,103.9,103.1,99.7,103.2z M99.7,93.3v-5.1H115
		c-2.2,2.9-5.1,5.3-8.2,6.6C104.6,94,102.2,93.4,99.7,93.3z M113.2,99.1c-1.3-1.2-2.7-2.3-4.3-3.2c3.2-1.7,6.1-4.4,8.3-7.7h6.2
		C120.9,92.7,117.4,96.5,113.2,99.1z M127,75.7c-0.3,3.7-1.2,7.2-2.6,10.4h-6c1.6-2.9,2.5-6.2,2.5-9.6c0-0.2,0-0.6,0-0.9H127z
		 M111.4,73.7h-5.7c0-0.1,0-0.1,0-0.1c0-3.4-0.9-6.6-2.5-9.6h5.6C110.2,67,111.1,70.3,111.4,73.7z M107.8,62H102
		c-2.2-3.3-5.1-6-8.3-7.7c1.5-0.9,2.9-1.9,4.1-3.1C102,53.8,105.5,57.5,107.8,62z M84.8,47c4.1,0.2,8,1.4,11.5,3.3
		c-3,2.8-7,4.6-11.5,4.9V47z M84.8,56.9c2.4-0.1,4.7-0.7,6.8-1.5c3.1,1.4,6,3.7,8.2,6.6h-15V56.9z M82.8,47v8.2
		c-4.6-0.2-8.8-2.1-11.9-5C74.4,48.2,78.5,47.1,82.8,47z M82.8,56.9V62H67.5c2.2-2.9,5.1-5.3,8.2-6.6C77.9,56.2,80.3,56.8,82.8,56.9
		z M69.3,51.1c1.3,1.2,2.7,2.3,4.3,3.2c-3.2,1.7-6.1,4.4-8.3,7.7h-6.2C61.5,57.5,65,53.7,69.3,51.1z M55.5,74.4
		c0.3-3.7,1.2-7.2,2.6-10.4h6c-1.6,2.9-2.5,6.2-2.5,9.6c0,0.2,0,0.6,0,0.9H55.5z M63.4,74.4c0-0.3,0-0.7,0-0.9c0-3.4,1-6.7,2.7-9.6
		h35.1c1.7,2.9,2.7,6.2,2.7,9.6c0,0,0,0.1,0,0.1h0l0,2h15.2c0,0.3,0,0.6,0,0.9c0,3.4-1,6.7-2.7,9.6H81.2c-1.7-2.9-2.7-6.2-2.7-9.6
		c0,0,0-0.1,0-0.1h0l0-2H63.4z M71,76.5h5.7c0,0.1,0,0.1,0,0.1c0,3.4,0.9,6.6,2.5,9.6h-5.6C72.2,83.2,71.3,79.9,71,76.5z M74.6,88.2
		h5.8c2.2,3.3,5.1,6,8.3,7.7c-1.5,0.9-2.9,1.9-4.1,3.1C80.4,96.4,77,92.6,74.6,88.2z M97.6,103.2c-4.1-0.2-8-1.4-11.5-3.3
		c3-2.8,7-4.6,11.5-4.9V103.2z M97.6,93.3c-2.4,0.1-4.7,0.7-6.8,1.5c-3.1-1.4-6-3.7-8.2-6.6h15V93.3z"/>
</g>
</svg>
